<?xml version="1.0" standalone="no"?>
<!DOCTYPE svg PUBLIC "-//W3C//DTD SVG 20010904//EN"
 "http://www.w3.org/TR/2001/REC-SVG-20010904/DTD/svg10.dtd">
<svg version="1.0" xmlns="http://www.w3.org/2000/svg"
 width="150.000000pt" height="50.000000pt" viewBox="0 0 150.000000 50.000000"
 preserveAspectRatio="xMidYMid meet">
<metadata>
Created by potrace 1.16, written by Peter Selinger 2001-2019
</metadata>
<g transform="translate(0.000000,50.000000) scale(0.100000,-0.100000)"
fill="#000000" stroke="none">
<path d="M180 443 c-92 -242 -108 -309 -95 -398 l7 -45 674 0 c633 0 675 1
682 17 12 31 8 255 -6 295 -15 41 -94 117 -150 144 -40 19 -189 29 -252 17
-35 -7 -50 -6 -69 6 -21 13 -82 16 -397 19 l-372 4 -22 -59z m980 -192 c0 -14
10 -21 35 -25 53 -10 73 -66 40 -113 -12 -18 -25 -22 -70 -22 l-55 0 0 90 c0
88 0 89 25 89 18 0 25 -5 25 -19z"/>
</g>
</svg>
